<?xml version="1.0" encoding="utf-8"?>
<!-- Generator: Adobe Illustrator 22.1.0, SVG Export Plug-In . SVG Version: 6.00 Build 0)  -->
<svg version="1.1" id="Layer_1" xmlns="http://www.w3.org/2000/svg" xmlns:xlink="http://www.w3.org/1999/xlink" x="0px" y="0px"
	 viewBox="0 0 1211.5 307.5" style="enable-background:new 0 0 1211.5 307.5;" xml:space="preserve">
<metadata><?xpacket begin="﻿" id="W5M0MpCehiHzreSzNTczkc9d"?>
<x:xmpmeta xmlns:x="adobe:ns:meta/" x:xmptk="Adobe XMP Core 5.6-c143 79.161356, 2017/09/07-01:11:22        ">
   <rdf:RDF xmlns:rdf="http://www.w3.org/1999/02/22-rdf-syntax-ns#">
      <rdf:Description rdf:about=""/>
   </rdf:RDF>
</x:xmpmeta>
                                                                                                    
                                                                                                    
                                                                                                    
                                                                                                    
                                                                                                    
                                                                                                    
                                                                                                    
                                                                                                    
                                                                                                    
                                                                                                    
                                                                                                    
                                                                                                    
                                                                                                    
                                                                                                    
                                                                                                    
                                                                                                    
                                                                                                    
                                                                                                    
                                                                                                    
                                                                                                    
                           
<?xpacket end="w"?></metadata>
<style type="text/css">
	.st0{fill:#FFFFFF;}
</style>
<g>
	<path class="st0" d="M185.6,92.5c-0.6-9.6-5.6-16.9-13-22c-6.8-5.6-15.8-8.5-24.8-8.5c-15.8,0-33.9,3.4-33.9,22.6
		c0,8.5,6.8,12.4,13,15.2c18.6,7.9,60.9,10.2,98.2,22.6c37.2,11.9,70,33.9,70,81.8c0,81.3-77.9,103.3-149,103.3
		C77.3,307.5,1.7,279.9,0,204.3h106.6c0.6,10.2,5.1,18.6,13.5,26c5.6,5.1,16.4,8.5,29.9,8.5c14.7,0,37.8-5.6,37.8-22.6
		c0-16.9-9.6-22-61.5-31C41.2,170.4,6.8,143.3,6.8,93.1C6.8,19.2,86.3,0,145,0c63.2,0,139.4,17.5,142.2,92.5H185.6z"/>
	<path class="st0" d="M603.2,234.7c0,22,1.1,46.8,13.5,65.5h-114c-2.8-7.9-4.5-19.8-4-27.7h-1.1c-23.7,27.1-58.1,35-94.2,35
		c-56.4,0-103.3-27.1-103.3-88.6c0-92.5,108.3-89.2,165.3-99.9c15.2-2.8,30.5-7.3,30.5-26c0-19.8-18.6-27.1-36.7-27.1
		c-34.4,0-41.2,17.5-41.8,29.9H313.7c1.7-41.2,22-65.5,50.8-79C392.7,3.4,430,0,464.4,0c139.9,0,138.8,58.1,138.8,114.5V234.7z
		 M496,168.7c-13.5,6.8-28.8,10.7-44,14.1c-24.8,5.6-37.8,11.8-37.8,31.6c0,13.5,14.7,27.1,35,27.1c25.4,0,45.1-15.2,46.8-45.7
		V168.7z"/>
	<path class="st0" d="M820.5,300.2h-132L592.5,7.3h117.9l45.7,178.3h1.1L803.5,7.3h114L820.5,300.2z"/>
	<path class="st0" d="M997.1,178.9c2.8,33.3,22,57,57,57c18.1,0,37.8-6.8,46.8-20.9h104.4c-22.6,63.2-84.1,92.5-150.7,92.5
		c-93.7,0-164.2-55.3-164.2-152.9C890.4,69.4,952.5,0,1045,0c116.2,0,166.5,64.9,166.5,178.9H997.1z M1104.3,120.8
		c0-27.1-20.3-49.1-49.1-49.1c-33.3,0-52.5,17.5-57.6,49.1H1104.3z"/>
</g>
</svg>
